<?xml version="1.0" encoding="utf-8" ?>
<!-- Generator: Adobe Illustrator 27.5.0, SVG Export Plug-In . SVG Version: 6.00 Build 0)  -->
<svg
  version="1.1"
  xmlns="http://www.w3.org/2000/svg"
  xmlns:xlink="http://www.w3.org/1999/xlink"
  x="0px"
  y="0px"
  viewBox="0 0 750 500"
  style="enable-background:new 0 0 750 500;"
  xml:space="preserve"
>
<!-- <g id="BACKGROUND">
	<rect style="fill:#FFFFFF;" width="750" height="500"/>
</g> -->
<g id="OBJECTS">
	<g>
		<path
        style="fill:#F5F8FF;"
        d="M93.648,417.934c0,0-37.163-100.787,20.93-161.617c58.093-60.831,76.064-29.518,141.97-102.77
			c65.906-73.251,134.308-89.749,202.725-63.353c68.417,26.397,85.387,118.661,154.773,133.242
			c69.386,14.581,94.36,47.47,91.772,103.947c-2.588,56.477-27.665,88.153-27.665,88.153L93.648,417.934z"
      />
		<rect
        x="81.99"
        y="415.74"
        style="fill:#7295DD;"
        width="603.627"
        height="5.872"
      />
	</g>
	<g>
		<g>
			<g>
				<path
            style="fill:#78C2EF;"
            d="M616.321,386.853c0,0,66.62-5.72,82.401,0.365c15.781,6.085-17.051,9.753-26.194,18.533
					c-9.144,8.78-16.975,9.251-28.544,4.575c-11.569-4.676-15.884,11.374-32.266,3.385L616.321,386.853z"
          />
				<path
            style="fill:none;stroke:#8DDCFF;stroke-width:0.9257;stroke-miterlimit:10;"
            d="M692.413,391.529
					c0,0-54.604,3.838-76.883,16.309"
          />
			</g>
			<g>
				<path
            style="fill:#8DDCFF;"
            d="M619.195,372.702c0,0,49.89-22.395,70.188-27.542c20.298-5.146,21.852-0.411,4.336,12.724
					c-17.516,13.136-12.191,28.738-28.316,28.908c-16.125,0.17-19.752,2.48-26.683,11.681c-6.931,9.202-22.533,9.901-22.533,9.901
					L619.195,372.702z"
          />
				<path
            style="fill:none;stroke:#AEEAFF;stroke-width:0.9257;stroke-miterlimit:10;"
            d="M692.118,351.586
					c0,0-43.065,22.492-69.233,44.42"
          />
			</g>
			<g>
				<path
            style="fill:#78C2EF;"
            d="M596.537,342.95c0,0,43.271-64.597,60.27-74.488c16.999-9.891-3.554,22.563-2.241,37.244
					c1.314,14.681-3.955,22.129-16.613,29.223c-12.658,7.094-1.236,22.683-20.399,31.733L596.537,342.95z"
          />
				<path
            style="fill:none;stroke:#8DDCFF;stroke-width:0.9257;stroke-miterlimit:10;"
            d="M653.531,280.498
					c0,0-25.55,40.526-35.441,73.148"
          />
			</g>
			<g>
				<path
            style="fill:#AEEAFF;"
            d="M611.723,355.959c0,0,39.774-37.531,57.258-49.055c17.484-11.524,20.507-7.562,8.273,10.596
					c-12.234,18.158-2.082,31.147-17.257,36.601s-17.844,8.826-21.37,19.793c-3.526,10.967-18.034,16.749-18.034,16.749
					L611.723,355.959z"
          />
				<path
            style="fill:none;stroke:#D9F2F9;stroke-width:0.9257;stroke-miterlimit:10;"
            d="M669.396,314.909
					c0,0-34.411,38.326-49.658,62.021"
          />
			</g>
		</g>
		<g>
			<path
          style="fill:#78C2EF;"
          d="M144.778,342.95c0,0-43.271-64.597-60.27-74.488c-16.999-9.891,3.554,22.563,2.241,37.244
				c-1.313,14.681,3.955,22.129,16.613,29.223c12.658,7.094,1.236,22.683,20.399,31.733L144.778,342.95z"
        />
			<path
          style="fill:#78C2EF;"
          d="M132.682,387.474c0,0-65.246-14.626-81.702-10.719c-16.456,3.907,15.584,11.958,23.464,21.887
				c7.88,9.929,15.577,11.45,27.67,8.372c12.093-3.078,14.211,13.406,31.517,7.693L132.682,387.474z"
        />
			<path
          style="fill:#8DDCFF;"
          d="M130.624,372.702c0,0-49.89-22.395-70.188-27.542c-20.298-5.146-21.852-0.411-4.336,12.724
				c17.516,13.136,12.191,28.738,28.316,28.908c16.125,0.17,19.752,2.48,26.683,11.681c6.931,9.202,22.533,9.901,22.533,9.901
				L130.624,372.702z"
        />
			<path
          style="fill:#AEEAFF;"
          d="M129.593,355.959c0,0-39.774-37.531-57.258-49.055c-17.484-11.524-20.507-7.562-8.273,10.596
				c12.234,18.158,2.082,31.147,17.257,36.601s17.844,8.826,21.37,19.793c3.526,10.967,18.034,16.749,18.034,16.749L129.593,355.959
				z"
        />
			<path
          style="fill:none;stroke:#8DDCFF;stroke-width:0.9257;stroke-miterlimit:10;"
          d="M87.785,280.498
				c0,0,25.55,40.526,35.441,73.148"
        />
			<path
          style="fill:none;stroke:#D9F2F9;stroke-width:0.9257;stroke-miterlimit:10;"
          d="M71.919,314.909
				c0,0,34.411,38.326,49.658,62.021"
        />
			<path
          style="fill:none;stroke:#AEEAFF;stroke-width:0.9257;stroke-miterlimit:10;"
          d="M57.701,351.586
				c0,0,43.065,22.492,69.233,44.42"
        />
			<path
          style="fill:none;stroke:#8DDCFF;stroke-width:0.9257;stroke-miterlimit:10;"
          d="M56.653,381.875
				c0,0,53.592,11.146,73.991,26.5"
        />
		</g>
	</g>
	<g>
		<path
        style="fill:#C9D7F4;"
        d="M280.607,295.811h-96.618V284.9h96.618c1.263,0,2.288,1.024,2.288,2.288v6.336
			C282.895,294.787,281.87,295.811,280.607,295.811z"
      />
		<rect
        x="109.369"
        y="295.811"
        style="fill:#C9D7F4;"
        width="46.109"
        height="120.729"
      />
		<rect
        x="237.841"
        y="295.811"
        style="fill:#2D2B52;"
        width="39.774"
        height="120.729"
      />
		<rect
        x="221.21"
        y="295.811"
        style="fill:#C9D7F4;"
        width="17.423"
        height="120.729"
      />
		<rect
        x="147.031"
        y="306.371"
        style="fill:#6D87C6;"
        width="83.067"
        height="110.169"
      />
		<rect
        x="147.031"
        y="295.811"
        style="fill:#C9D7F4;"
        width="83.067"
        height="10.559"
      />
		<path
        style="fill:#2D2B52;"
        d="M217.834,325.378h-65.931c-2.691,0-4.872-2.181-4.872-4.872v-14.134h75.676v14.134
			C222.706,323.196,220.525,325.378,217.834,325.378z"
      />
		<path
        style="fill:#5873AF;"
        d="M213.13,315.874h-56.524c-2.47,0-4.472,2.002-4.472,4.472v5.031h65.468v-5.031
			C217.602,317.876,215.6,315.874,213.13,315.874z"
      />
		<rect
        x="147.031"
        y="356.176"
        style="fill:#5873AF;"
        width="83.067"
        height="3.344"
      />
		<rect
        x="147.031"
        y="385.742"
        style="fill:#5873AF;"
        width="83.067"
        height="3.344"
      />
		<path
        style="fill:#2D2B52;"
        d="M199.651,364.799h-22.175c-1.13,0-2.046-0.916-2.046-2.046v-3.234h26.266v3.234
			C201.697,363.883,200.781,364.799,199.651,364.799z"
      />
		<path
        style="fill:#2D2B52;"
        d="M199.651,394.365h-22.175c-1.13,0-2.046-0.916-2.046-2.046v-3.234h26.266v3.234
			C201.697,393.449,200.781,394.365,199.651,394.365z"
      />
		<path
        style="fill:#E8EEF9;"
        d="M106.114,284.9h42.183c1.342,0,2.43,1.088,2.43,2.43v6.052c0,1.342-1.088,2.43-2.43,2.43h-42.183
			c-1.215,0-2.201-0.985-2.201-2.201v-6.51C103.913,285.885,104.898,284.9,106.114,284.9z"
      />
		<rect
        x="144.391"
        y="284.9"
        style="fill:#E8EEF9;"
        width="96.882"
        height="10.911"
      />
		<rect
        x="109.369"
        y="374.039"
        style="fill:#6D87C6;"
        width="37.662"
        height="3.432"
      />
		<rect
        x="248.578"
        y="374.038"
        style="fill:#6D87C6;"
        width="47.518"
        height="42.504"
      />
		<rect
        x="284.832"
        y="374.038"
        style="fill:#5873AF;"
        width="11.265"
        height="42.504"
      />
		<path
        style="fill:#22223F;"
        d="M251.532,334.705h18.727c1.633,0,2.956,1.323,2.956,2.956v24.191h-24.638v-24.191
			C248.577,336.028,249.9,334.705,251.532,334.705z"
      />
		<path
        style="fill:#6D87C6;"
        d="M296.817,350.5h-18.606c-1.555,0-3.095,0.308-4.531,0.905l-25.103,10.446h24.638l23.884-9.939
			C297.841,351.604,297.62,350.5,296.817,350.5z"
      />
		<rect
        x="202.731"
        y="280.324"
        style="fill:#6D87C6;"
        width="44.261"
        height="4.576"
      />
		<polygon
        style="fill:#5873AF;"
        points="252.657,255.51 224.301,255.51 192.755,280.324 221.111,280.324 		"
      />
		<path
        style="fill:#C9D7F4;"
        d="M202.731,284.9h-67.844v-6.82c0-2.989,2.423-5.412,5.412-5.412h62.432V284.9z"
      />
	</g>
	<g>
		<g>
			<g>
				<path
            style="fill:#6D87C6;"
            d="M480.643,411.817h-6.176v-0.867h6.176c2.544,0,4.613-2.07,4.613-4.613V300.452
					c0-2.544-2.07-4.614-4.613-4.614h-20.704v-0.867h20.704c3.022,0,5.48,2.458,5.48,5.481v105.885
					C486.123,409.359,483.665,411.817,480.643,411.817z"
          />
				<path
            style="fill:#6D87C6;"
            d="M482.003,415.785h-13.464v-0.867h13.464c3.429,0,6.218-2.789,6.218-6.218V301.205
					c0-4.976-4.048-9.024-9.024-9.024h-19.924v-0.867h19.924c5.453,0,9.891,4.437,9.891,9.891V408.7
					C489.088,412.607,485.91,415.785,482.003,415.785z"
          />
			</g>
		</g>
		<g>
			<path
          style="fill:#2D2B52;"
          d="M296.236,284.535h73.827c2.108,0,3.817-1.709,3.817-3.817v-45.514
				c0-1.465-1.188-2.653-2.653-2.653h-76.155c-1.465,0-2.653,1.188-2.653,2.653v45.514
				C292.419,282.827,294.128,284.535,296.236,284.535z"
        />
			<path
          style="fill:#8DDCFF;"
          d="M370.189,236.739v39.741c0,0.98-0.798,1.786-1.786,1.786h-70.506
				c-0.989,0-1.786-0.806-1.786-1.786v-39.741c0-0.763,0.616-1.379,1.37-1.379h71.339
				C369.574,235.36,370.189,235.975,370.189,236.739z"
        />
			<g>
				<polygon
            style="fill:#6D87C6;"
            points="321.191,302.472 329.365,302.472 333.451,284.535 325.278,284.535 				"
          />
				<polygon
            style="fill:#2D2B52;"
            points="324,302.472 332.174,302.472 336.26,284.535 328.087,284.535 				"
          />
			</g>
			<path
          style="fill:#5DB6E8;"
          d="M370.189,236.739v1.977H296.11v-1.977c0-0.763,0.616-1.379,1.37-1.379h71.339
				C369.574,235.36,370.189,235.975,370.189,236.739z"
        />
			<rect
          x="298.06"
          y="241.704"
          style="fill:#5DB6E8;"
          width="10.051"
          height="32.247"
        />
			<rect
          x="313.308"
          y="241.704"
          style="fill:#FFFFFF;"
          width="32.247"
          height="32.247"
        />
			<rect
          x="351.839"
          y="241.704"
          style="fill:#5DB6E8;"
          width="16.999"
          height="32.247"
        />
			<g>
				<circle style="fill:#F43737;" cx="328.972" cy="254.273" r="5.615" />
				<circle style="fill:#F2E038;" cx="325.207" cy="261.125" r="5.615" />
				<circle style="fill:#58AEED;" cx="332.738" cy="261.125" r="5.615" />
			</g>
		</g>
		<g>
			<rect
          x="302.277"
          y="314.012"
          style="fill:#C9D7F4;"
          width="5.056"
          height="102.53"
        />
			<rect
          x="320.129"
          y="314.012"
          style="fill:#6D87C6;"
          width="5.056"
          height="102.53"
        />
			<rect
          x="472.75"
          y="314.012"
          style="fill:#6D87C6;"
          width="5.056"
          height="102.53"
        />
			<g>
				<rect
            x="434.913"
            y="343.227"
            style="fill:#2D2B52;"
            width="42.791"
            height="73.312"
          />
				<rect
            x="409.574"
            y="343.227"
            style="fill:#393966;"
            width="31.238"
            height="73.312"
          />
				<rect
            x="413.28"
            y="348.781"
            style="fill:#6D87C6;"
            width="8.046"
            height="1.906"
          />
				<path
            style="fill:#C9D7F4;"
            d="M437.736,349.522c0,1.549-1.256,2.806-2.806,2.806c-1.549,0-2.806-1.256-2.806-2.806
					s1.256-2.806,2.806-2.806C436.48,346.717,437.736,347.973,437.736,349.522z"
          />
				<circle style="fill:#2D2B52;" cx="434.931" cy="349.522" r="1.634" />
				<rect
            x="409.574"
            y="362.227"
            style="fill:#2D2B52;"
            width="31.238"
            height="1.482"
          />
				<rect
            x="409.574"
            y="381.602"
            style="fill:#2D2B52;"
            width="31.238"
            height="1.482"
          />
				<path
            style="fill:#6D87C6;"
            d="M433.973,408.282H416.09c-1.552,0-2.81,1.258-2.81,2.81v5.448h23.504v-5.448
					C436.783,409.54,435.525,408.282,433.973,408.282z"
          />
				<path
            style="fill:#393966;"
            d="M477.703,359.58h-25.597c-3.992,0-7.228,3.236-7.228,7.228v49.734h32.825V359.58z"
          />
			</g>
			<rect
          x="454.898"
          y="314.012"
          style="fill:#C9D7F4;"
          width="5.056"
          height="102.53"
        />
			<rect
          x="311.404"
          y="302.472"
          style="fill:#C9D7F4;"
          width="175.129"
          height="5.17"
        />
			<rect
          x="314.95"
          y="307.642"
          style="fill:#5873AF;"
          width="165.643"
          height="10.531"
        />
			<rect
          x="292.071"
          y="302.472"
          style="fill:#E8EEF9;"
          width="175.129"
          height="5.17"
        />
			<rect
          x="295.617"
          y="307.642"
          style="fill:#6D87C6;"
          width="165.643"
          height="10.531"
        />
		</g>
		<g>
			<path
          style="fill:#2D2B52;"
          d="M470.729,259.237h-26.264c-1.784,0-3.654,1.446-4.177,3.23l-5.514,18.82h32.725l5.514-18.82
				C473.536,260.683,472.513,259.237,470.729,259.237z"
        />
			<polygon
          style="fill:#6D87C6;"
          points="467.749,253.822 440.642,253.822 437.552,284.441 461.928,284.202 			"
        />
			<polygon
          style="fill:#C9D7F4;"
          points="464.877,250.95 437.77,250.95 434.68,281.569 460.215,282.489 			"
        />
			<polygon
          style="fill:#F5F5FF;"
          points="462.63,248.703 435.523,248.703 432.433,279.322 459.54,279.322 			"
        />
			<path
          style="fill:#2D2B52;"
          d="M480.514,284.535h-57.678v-4.184c0-2.25,1.824-4.073,4.073-4.073h49.532
				c2.25,0,4.073,1.823,4.073,4.073V284.535z"
        />
			<polygon
          style="fill:#2D2B52;"
          points="477.985,302.472 425.879,302.472 422.836,284.535 480.514,284.535 			"
        />
			<path
          style="fill:#393966;"
          d="M472.087,284.535h-57.678v-4.184c0-2.25,1.824-4.073,4.073-4.073h49.532
				c2.249,0,4.073,1.823,4.073,4.073V284.535z"
        />
			<polygon
          style="fill:#393966;"
          points="469.559,302.472 417.452,302.472 414.409,284.535 472.087,284.535 			"
        />
			<path
          style="fill:#2D2B52;"
          d="M461.764,302.472h-37.032v-13.273c0-0.983,0.796-1.779,1.779-1.779h33.474
				c0.983,0,1.779,0.796,1.779,1.779V302.472z"
        />
			<rect
          x="414.409"
          y="282.645"
          style="fill:#2D2B52;"
          width="57.678"
          height="1.89"
        />
			<rect
          x="435.664"
          y="287.42"
          style="fill:#6D87C6;"
          width="14.232"
          height="2.996"
        />
		</g>
	</g>
	<g>
		<g>
			<rect
          x="497.64"
          y="176.793"
          style="fill:#C9D7F4;"
          width="133.866"
          height="127.175"
        />
			<rect
          x="495.205"
          y="166.58"
          style="fill:#393966;"
          width="142.073"
          height="10.211"
        />
			<rect
          x="500.977"
          y="176.793"
          style="fill:#FFFFFF;"
          width="130.529"
          height="123.713"
        />
			<rect
          x="495.205"
          y="173.017"
          style="fill:#6D87C6;"
          width="142.073"
          height="3.774"
        />
			<g>
				<rect
            x="509.968"
            y="185.006"
            style="fill:#FFFFFF;"
            width="51.279"
            height="87.075"
          />
				<g>
					<g>
						<path
                style="fill:#8DDCFF;"
                d="M525.368,202.392c0,2.391-1.938,4.329-4.329,4.329c-2.391,0-4.329-1.938-4.329-4.329
							c0-2.391,1.938-4.329,4.329-4.329C523.43,198.063,525.368,200.001,525.368,202.392z"
              />
						<path
                style="fill:#A3E3FF;"
                d="M525.368,217.396c0,2.391-1.938,4.329-4.329,4.329c-2.391,0-4.329-1.938-4.329-4.329
							c0-2.391,1.938-4.329,4.329-4.329C523.43,213.068,525.368,215.005,525.368,217.396z"
              />
						<path
                style="fill:#B8E9FF;"
                d="M525.368,232.4c0,2.391-1.938,4.329-4.329,4.329c-2.391,0-4.329-1.938-4.329-4.329
							c0-2.391,1.938-4.329,4.329-4.329C523.43,228.072,525.368,230.01,525.368,232.4z"
              />
						<path
                style="fill:#CEF0FF;"
                d="M525.368,247.405c0,2.391-1.938,4.329-4.329,4.329c-2.391,0-4.329-1.938-4.329-4.329
							c0-2.391,1.938-4.329,4.329-4.329C523.43,243.076,525.368,245.014,525.368,247.405z"
              />
						<path
                style="fill:#E3F6FF;"
                d="M525.368,262.409c0,2.391-1.938,4.329-4.329,4.329c-2.391,0-4.329-1.938-4.329-4.329
							c0-2.391,1.938-4.329,4.329-4.329C523.43,258.08,525.368,260.018,525.368,262.409z"
              />
					</g>
					<g>
						<circle style="fill:#6D87C6;" cx="536.523" cy="202.392" r="4.329" />
						<path
                style="fill:#899ED1;"
                d="M540.852,217.396c0,2.391-1.938,4.329-4.329,4.329s-4.329-1.938-4.329-4.329
							c0-2.391,1.938-4.329,4.329-4.329S540.852,215.005,540.852,217.396z"
              />
						<path
                style="fill:#A4B4DC;"
                d="M540.852,232.4c0,2.391-1.938,4.329-4.329,4.329s-4.329-1.938-4.329-4.329
							c0-2.391,1.938-4.329,4.329-4.329S540.852,230.01,540.852,232.4z"
              />
						<circle style="fill:#BFCBE6;" cx="536.523" cy="247.405" r="4.329" />
						<path
                style="fill:#DBE1F1;"
                d="M540.852,262.409c0,2.391-1.938,4.329-4.329,4.329s-4.329-1.938-4.329-4.329
							c0-2.391,1.938-4.329,4.329-4.329S540.852,260.018,540.852,262.409z"
              />
					</g>
					<g>
						<path
                style="fill:#393966;"
                d="M554.504,202.392c0,2.391-1.938,4.329-4.329,4.329s-4.329-1.938-4.329-4.329
							c0-2.391,1.938-4.329,4.329-4.329S554.504,200.001,554.504,202.392z"
              />
						<path
                style="fill:#5E5E83;"
                d="M554.504,217.396c0,2.391-1.938,4.329-4.329,4.329s-4.329-1.938-4.329-4.329
							c0-2.391,1.938-4.329,4.329-4.329S554.504,215.005,554.504,217.396z"
              />
						<path
                style="fill:#8484A0;"
                d="M554.504,232.4c0,2.391-1.938,4.329-4.329,4.329s-4.329-1.938-4.329-4.329
							c0-2.391,1.938-4.329,4.329-4.329S554.504,230.01,554.504,232.4z"
              />
						<path
                style="fill:#A9A9BC;"
                d="M554.504,247.405c0,2.391-1.938,4.329-4.329,4.329s-4.329-1.938-4.329-4.329
							c0-2.391,1.938-4.329,4.329-4.329S554.504,245.014,554.504,247.405z"
              />
						<path
                style="fill:#CECED9;"
                d="M554.504,262.409c0,2.391-1.938,4.329-4.329,4.329s-4.329-1.938-4.329-4.329
							c0-2.391,1.938-4.329,4.329-4.329S554.504,260.018,554.504,262.409z"
              />
					</g>
				</g>
				<rect
            x="518.514"
            y="188.891"
            style="fill:#6D87C6;"
            width="34.186"
            height="4.218"
          />
			</g>
			<rect
          x="574.233"
          y="185.006"
          style="fill:#6D87C6;"
          width="50.78"
          height="9.99"
        />
			<g>
				<g>
					<path
              style="fill:#393966;"
              d="M581.226,206.484c0,1.747-1.416,3.163-3.163,3.163c-1.747,0-3.163-1.416-3.163-3.163
						c0-1.747,1.416-3.163,3.163-3.163C579.81,203.32,581.226,204.736,581.226,206.484z"
            />
					<rect
              x="586.887"
              y="204.985"
              style="fill:#393966;"
              width="35.407"
              height="2.997"
            />
				</g>
				<g>
					<g>
						<path
                style="fill:#393966;"
                d="M581.226,218.388c0,1.747-1.416,3.163-3.163,3.163c-1.747,0-3.163-1.416-3.163-3.163
							c0-1.747,1.416-3.163,3.163-3.163C579.81,215.224,581.226,216.641,581.226,218.388z"
              />
						<rect
                x="586.887"
                y="216.889"
                style="fill:#393966;"
                width="35.407"
                height="2.997"
              />
					</g>
				</g>
				<g>
					<path
              style="fill:#393966;"
              d="M581.226,230.292c0,1.747-1.416,3.163-3.163,3.163c-1.747,0-3.163-1.416-3.163-3.163
						c0-1.747,1.416-3.163,3.163-3.163C579.81,227.128,581.226,228.545,581.226,230.292z"
            />
					<rect
              x="586.887"
              y="228.793"
              style="fill:#393966;"
              width="35.407"
              height="2.997"
            />
				</g>
				<g>
					<path
              style="fill:#393966;"
              d="M581.226,242.196c0,1.747-1.416,3.163-3.163,3.163c-1.747,0-3.163-1.416-3.163-3.163
						c0-1.747,1.416-3.163,3.163-3.163C579.81,239.033,581.226,240.449,581.226,242.196z"
            />
					<rect
              x="586.887"
              y="240.697"
              style="fill:#393966;"
              width="35.407"
              height="2.997"
            />
				</g>
			</g>
			<rect
          x="581.226"
          y="255.432"
          style="fill:#6D87C6;"
          width="32.133"
          height="5.827"
        />
			<g>
				<rect
            x="509.968"
            y="281.702"
            style="fill:#6D87C6;"
            width="33.499"
            height="8.027"
          />
				<rect
            x="550.032"
            y="281.702"
            style="fill:#6D87C6;"
            width="33.499"
            height="8.027"
          />
				<rect
            x="589.516"
            y="281.702"
            style="fill:#6D87C6;"
            width="33.499"
            height="8.027"
          />
			</g>
		</g>
		<g>
			<g>
				<rect
            x="543.285"
            y="380.424"
            style="fill:#393966;"
            width="87.431"
            height="36.118"
          />
				<rect
            x="590.258"
            y="380.424"
            style="fill:#5873AF;"
            width="40.458"
            height="36.118"
          />
				<rect
            x="600.772"
            y="383.853"
            style="fill:#6D87C6;"
            width="20.8"
            height="5.029"
          />
			</g>
			<g>
				<rect
            x="496.313"
            y="380.424"
            style="fill:#6D87C6;"
            width="87.431"
            height="36.118"
          />
				<rect
            x="543.285"
            y="380.424"
            style="fill:#5873AF;"
            width="40.458"
            height="36.118"
          />
				<rect x="553.8" y="383.853" style="fill:#6D87C6;" width="20.8" height="5.029" />
			</g>
			<g>
				<g>
					<rect
              x="565.343"
              y="355.966"
              style="fill:#B8C9E8;"
              width="57.03"
              height="24.458"
            />
					<rect
              x="543.286"
              y="355.966"
              style="fill:#C9D7F4;"
              width="57.03"
              height="24.458"
            />
					<g>
						<g>
							<g>
								<rect
                    x="543.285"
                    y="358.354"
                    style="fill:#AFBEE2;"
                    width="57.03"
                    height="0.481"
                  />
								<rect
                    x="543.285"
                    y="360.545"
                    style="fill:#AFBEE2;"
                    width="57.03"
                    height="0.481"
                  />
								<rect
                    x="543.285"
                    y="362.736"
                    style="fill:#AFBEE2;"
                    width="57.03"
                    height="0.481"
                  />
								<rect
                    x="543.285"
                    y="364.926"
                    style="fill:#AFBEE2;"
                    width="57.03"
                    height="0.481"
                  />
								<rect
                    x="543.285"
                    y="367.117"
                    style="fill:#AFBEE2;"
                    width="57.03"
                    height="0.481"
                  />
								<rect
                    x="543.285"
                    y="369.308"
                    style="fill:#AFBEE2;"
                    width="57.03"
                    height="0.481"
                  />
								<rect
                    x="543.285"
                    y="371.498"
                    style="fill:#AFBEE2;"
                    width="57.03"
                    height="0.481"
                  />
								<rect
                    x="543.285"
                    y="373.688"
                    style="fill:#AFBEE2;"
                    width="57.03"
                    height="0.481"
                  />
								<rect
                    x="543.285"
                    y="375.879"
                    style="fill:#AFBEE2;"
                    width="57.03"
                    height="0.481"
                  />
								<rect
                    x="543.285"
                    y="378.069"
                    style="fill:#AFBEE2;"
                    width="57.03"
                    height="0.481"
                  />
							</g>
							<polygon
                  style="fill:#AFBEE2;"
                  points="593.058,367.598 580.715,370.595 579.972,367.598 							"
                />
							<polygon
                  style="fill:#AFBEE2;"
                  points="547.686,374.169 558.229,376.969 559.429,374.169 							"
                />
						</g>
					</g>
				</g>
				<g>
					<rect
              x="550.086"
              y="333.676"
              style="fill:#C9D7F4;"
              width="57.03"
              height="22.143"
            />
					<rect
              x="528.028"
              y="333.676"
              style="fill:#FFFFFF;"
              width="57.03"
              height="22.143"
            />
					<g>
						<g>
							<rect
                  x="528.028"
                  y="335.94"
                  style="fill:#C9D7F4;"
                  width="57.03"
                  height="0.481"
                />
							<rect
                  x="528.028"
                  y="338.131"
                  style="fill:#C9D7F4;"
                  width="57.03"
                  height="0.481"
                />
							<rect
                  x="528.028"
                  y="340.321"
                  style="fill:#C9D7F4;"
                  width="57.03"
                  height="0.481"
                />
							<rect
                  x="528.028"
                  y="342.512"
                  style="fill:#C9D7F4;"
                  width="57.03"
                  height="0.481"
                />
							<rect
                  x="528.028"
                  y="344.703"
                  style="fill:#C9D7F4;"
                  width="57.03"
                  height="0.481"
                />
							<rect
                  x="528.028"
                  y="346.893"
                  style="fill:#C9D7F4;"
                  width="57.03"
                  height="0.481"
                />
							<rect
                  x="528.028"
                  y="349.083"
                  style="fill:#C9D7F4;"
                  width="57.03"
                  height="0.481"
                />
							<rect
                  x="528.028"
                  y="351.273"
                  style="fill:#C9D7F4;"
                  width="57.03"
                  height="0.481"
                />
							<rect
                  x="528.028"
                  y="353.464"
                  style="fill:#C9D7F4;"
                  width="57.03"
                  height="0.481"
                />
						</g>
						<polygon
                style="fill:#C9D7F4;"
                points="532.428,349.564 542.971,352.364 544.171,349.564 						"
              />
					</g>
				</g>
				<g>
					<rect
              x="529.228"
              y="355.966"
              style="fill:#E8EEF9;"
              width="57.03"
              height="24.458"
            />
					<rect
              x="507.17"
              y="355.966"
              style="fill:#FFFFFF;"
              width="57.03"
              height="24.458"
            />
					<g>
						<g>
							<g>
								<rect
                    x="507.17"
                    y="358.354"
                    style="fill:#C9D7F4;"
                    width="57.03"
                    height="0.481"
                  />
								<rect
                    x="507.17"
                    y="360.545"
                    style="fill:#C9D7F4;"
                    width="57.03"
                    height="0.481"
                  />
								<rect
                    x="507.17"
                    y="362.736"
                    style="fill:#C9D7F4;"
                    width="57.03"
                    height="0.481"
                  />
								<rect
                    x="507.17"
                    y="364.926"
                    style="fill:#C9D7F4;"
                    width="57.03"
                    height="0.481"
                  />
								<rect
                    x="507.17"
                    y="367.117"
                    style="fill:#C9D7F4;"
                    width="57.03"
                    height="0.481"
                  />
								<rect
                    x="507.17"
                    y="369.308"
                    style="fill:#C9D7F4;"
                    width="57.03"
                    height="0.481"
                  />
								<rect
                    x="507.17"
                    y="371.498"
                    style="fill:#C9D7F4;"
                    width="57.03"
                    height="0.481"
                  />
								<rect
                    x="507.17"
                    y="373.688"
                    style="fill:#C9D7F4;"
                    width="57.03"
                    height="0.481"
                  />
								<rect
                    x="507.17"
                    y="375.879"
                    style="fill:#C9D7F4;"
                    width="57.03"
                    height="0.481"
                  />
								<rect
                    x="507.17"
                    y="378.069"
                    style="fill:#C9D7F4;"
                    width="57.03"
                    height="0.481"
                  />
							</g>
							<polygon
                  style="fill:#C9D7F4;"
                  points="556.943,367.598 544.6,370.595 543.857,367.598 							"
                />
							<polygon
                  style="fill:#C9D7F4;"
                  points="511.57,374.169 522.113,376.969 523.313,374.169 							"
                />
						</g>
					</g>
				</g>
			</g>
		</g>
	</g>
	<g>
		<g>
			<g>
				
					<rect
            x="328.442"
            y="395.03"
            transform="matrix(-1 -1.224647e-16 1.224647e-16 -1 666.2992 799.4767)"
            style="fill:#FFA197;"
            width="9.416"
            height="9.416"
          />
				<polygon
            style="fill:#ED827A;"
            points="378.12,404.446 387.536,404.446 385.955,395.03 376.539,395.03 				"
          />
				<path
            style="fill:#0D1028;"
            d="M382.328,341.589c0,0,6.936,36.043,7.105,59.418c0,0-6.617,2.583-14.081,0l-14.76-61.284
					L382.328,341.589z"
          />
				<path
            style="fill:#181E47;"
            d="M355.201,318.431c0,0-29.05,14.166-32.273,21.801c-3.223,7.635,4.241,59.719,4.241,59.719
					s7.465,2.375,13.233,0l2.375-55.478h26.416c9.821,0,17.142-9.505,14.141-18.856c-0.105-0.328-0.221-0.659-0.348-0.994
					L355.201,318.431z"
          />
				<path
            style="fill:#8DDCFF;"
            d="M337.858,404.446c0,0,1.612,3.648,0.933,13.488h-29.775c0,0-0.848-1.357,6.023-4.835
					c6.871-3.478,13.403-8.652,13.403-8.652H337.858z"
          />
				<path
            style="fill:#5DB6E8;"
            d="M387.536,404.446c0,0,2.746,4.835,2.407,13.488h-21.631c0,0-0.339-1.188,2.884-3.648
					c3.223-2.46,6.925-9.84,6.925-9.84H387.536z"
          />
			</g>
			<g>
				<path
            style="fill:#FFA197;"
            d="M360.98,238.611c0,0,0.639,12.921,3.596,15.463c2.957,2.543,8.302-1.084,8.302-1.084
					l7.253-16.288c0,0-10.562-5.09-11.007-5.217c-0.445-0.127-7.635-1.336-7.635-1.336l-0.509,2.482V238.611z"
          />
				<path
            style="fill:#810004;"
            d="M365.391,236.75l0.729,3.985c0,0,1.003-4.246,3.126-4.188c2.123,0.059,1.828,7.137-1.769,7.255
					c0,0,1.483,7.431,3.1,8.198c1.618,0.767,11.921,0.288,11.921,0.288s6.683-11.848,5.857-18.513
					c-0.826-6.665-4.011-5.249-4.011-5.249s1.062-5.013-4.6-7.726c-5.662-2.713-11.737-0.531-15.57,3.775l-3.598-3.421
					c0,0-2.89,3.303-0.295,6.901l-5.013-2.477c0,0-0.968,7.037,4.517,8.158c0,0-0.993,2.665,0.894,4.434l1.43-5.102
					C362.742,234.951,363.801,236.228,365.391,236.75z"
          />
			</g>
			<g>
				<path
            style="fill:#FFA197;"
            d="M322.12,295.621c0,0-7.109-1.404-10.39,0c-3.28,1.404-3.619,6.962-3.619,6.962h15.156
					L322.12,295.621z"
          />
				<path
            style="fill:#FFD4C7;"
            d="M387.741,254.81c0,0-1.572-2.883-4.324-3.8c-2.752-0.917-11.792-0.852-14.675,0.524
					c-2.883,1.376-2.555,4.782-2.555,4.782L387.741,254.81z"
          />
				<path
            style="fill:#0D1028;"
            d="M402.553,323.266c0,0,1.11,5.982-0.001,11.632c-1.076,5.47-5.89,9.406-11.465,9.406H361.61
					l14.289-27.484L402.553,323.266z"
          />
				<path
            style="fill:#E24E2B;"
            d="M357.877,298.156l-2.676,20.274c0,0,24.844,16.372,47.352,4.835l-1.923-25.109H357.877z"
          />
				<path
            style="fill:#F66A35;"
            d="M321.745,302.564h72.778c0,0,5.322,0.162,10.215-0.457c0,0,0.066,0,0.171-0.029
					c3.722-0.476,7.149-1.428,7.768-3.246c1.438-4.236-6.197-31.976-13.404-39.268c-7.206-7.302-32.405-8.406-40.716-1.875
					c-8.311,6.54-13.746,32.662-13.746,32.662l-22.304,4.493C320.641,297.985,321.745,302.564,321.745,302.564z"
          />
				<path
            style="fill:#E24E2B;"
            d="M344.401,302.564h50.121c0,0,5.322,0.162,10.215-0.457c0,0,0.066,0,0.171-0.029
					c0.847-0.219,4.312-1.809,1.237-13.594c-3.475-13.318-6.616-23.923-8.996-26.979c-2.37-3.046-12.385-5.169-23.58-4.065
					c-11.195,1.104-10.129,5.794-11.17,10.432c-3.011,13.414-5.829,29.952-7.866,31.99
					C352.763,301.642,345.211,302.45,344.401,302.564z"
          />
			</g>
		</g>
		<g>
			<path
          style="fill:#2D2B52;"
          d="M338.244,348.279v1.34c0,1.245,1.001,2.246,2.246,2.246h60.95c1.245,0,2.254-1.001,2.254-2.246
				v-4.145c0-1.245-1.009-2.246-2.254-2.246h-58.144C340.505,343.227,338.244,345.489,338.244,348.279z"
        />
			<path
          style="fill:#393966;"
          d="M354.533,348.279v1.34c0,1.245,1.009,2.246,2.246,2.246h44.66c1.245,0,2.254-1.001,2.254-2.246
				v-4.145c0-1.245-1.009-2.246-2.254-2.246h-41.847C356.795,343.227,354.533,345.489,354.533,348.279z"
        />
			
				<rect
          x="370.969"
          y="351.865"
          transform="matrix(-1 -1.224647e-16 1.224647e-16 -1 746.4753 761.6629)"
          style="fill:#6D87C6;"
          width="4.538"
          height="57.934"
        />
			<path
          style="fill:#2D2B52;"
          d="M365.079,356.709h16.317c1.157,0,2.094-0.938,2.094-2.094v-2.75h-20.506v2.75
				C362.985,355.771,363.922,356.709,365.079,356.709z"
        />
			<path
          style="fill:#393966;"
          d="M370.17,402.121h7.022c0.672,0,1.217-0.545,1.217-1.217v-12.359c0-0.672-0.545-1.217-1.217-1.217
				h-7.022c-0.672,0-1.217,0.545-1.217,1.217v12.359C368.952,401.576,369.497,402.121,370.17,402.121z"
        />
			<g>
				<polygon
            style="fill:#5873AF;"
            points="375.507,409.798 396.48,414.012 396.48,411.905 375.507,404.461 				"
          />
				<g>
					<circle style="fill:#2D2B52;" cx="397.183" cy="413.012" r="3.53" />
					<circle style="fill:#5873AF;" cx="397.183" cy="413.012" r="1.674" />
				</g>
			</g>
			<g>
				<polygon
            style="fill:#5873AF;"
            points="370.969,409.798 349.995,414.012 349.995,411.905 370.969,404.461 				"
          />
				<g>
					<path
              style="fill:#2D2B52;"
              d="M352.822,413.012c0,1.949-1.58,3.53-3.53,3.53c-1.949,0-3.53-1.58-3.53-3.53
						s1.58-3.53,3.53-3.53C351.242,409.482,352.822,411.063,352.822,413.012z"
            />
					<path
              style="fill:#5873AF;"
              d="M350.966,413.012c0,0.924-0.749,1.674-1.674,1.674c-0.924,0-1.674-0.749-1.674-1.674
						c0-0.924,0.749-1.674,1.674-1.674C350.217,411.339,350.966,412.088,350.966,413.012z"
            />
				</g>
			</g>
			<path
          style="fill:#6D87C6;"
          d="M376.657,348.984h3.608c0.654,0,1.221-0.452,1.367-1.089l3.574-15.594
				c0.201-0.878-0.466-1.716-1.367-1.716h-3.608c-0.654,0-1.221,0.452-1.367,1.089l-3.574,15.594
				C375.089,348.146,375.756,348.984,376.657,348.984z"
        />
			<path
          style="fill:#6D87C6;"
          d="M359.616,287.164v41.019c0,2.711,1.962,4.965,4.555,5.406c0.299,0.055,0.615,0.087,0.938,0.087
				h33.091c3.034,0,5.493-2.459,5.493-5.493v-41.019c0-2.246-0.599-4.342-1.639-6.155c-2.136-3.696-6.123-6.178-10.694-6.178h-19.41
				C365.133,274.83,359.616,280.347,359.616,287.164z"
        />
			<path
          style="fill:#393966;"
          d="M364.085,288.38v44.295c0,0.315,0.024,0.623,0.087,0.914c0.299,0.055,0.615,0.087,0.938,0.087
				h33.091c3.034,0,5.493-2.459,5.493-5.493v-41.019c0-2.246-0.599-4.342-1.639-6.155c-1.828-1.072-3.956-1.686-6.226-1.686h-22.686
				C368.14,279.322,364.085,283.378,364.085,288.38z"
        />
		</g>
	</g>
	<g>
		<g>
			<path
          style="fill:#181E47;"
          d="M150.936,208.366c0,0-8.79-17.227-6.762-22.153c2.029-4.926,5.732-3.381,5.732-3.381
				s-0.032-7.341,7.309-9.95c7.341-2.608,14.49,4.926,15.939,7.438c0,0,5.41-2.125,5.893-1.063c0.483,1.063-2.995,5.41-2.995,5.41
				s4.057-1.159,4.154,0s-4.347,6.086-4.347,6.086s-0.773,4.154-3.188,4.733c-2.415,0.58-6.955,9.467-6.955,9.467l-8.597,7.824
				L150.936,208.366z"
        />
			<path
          style="fill:#FFA197;"
          d="M173.541,189.11c0,0,0.519,13.156-1.03,18.805c-1.095,3.993-6.826,2.898-6.826,2.898l-0.515,3.091
				h-15.585l1.03-5.538c0,0,6.311,1.159,9.789-0.129c3.478-1.288,4.701-7.406,4.701-7.406s-4.959-1.674-3.156-5.86
				c1.803-4.186,4.637-1.481,4.379,0.708l2.834-3.735C169.162,191.944,172.06,192.91,173.541,189.11z"
        />
		</g>
		<g>
			<path
          style="fill:#F66A35;"
          d="M170.738,402.595c0,0-1.653,8.925-0.949,13.146h32.359c0,0-1.319-3.341-7.386-5.979
				c-6.067-2.638-11.607-8.005-11.607-8.005L170.738,402.595z"
        />
			<path
          style="fill:#E24E2B;"
          d="M137.239,401.992c0,0,1.972,4.329,7.136,7.505c5.364,3.299,5.012,6.243,5.012,6.243H122.92
				c0,0-0.239-10.197,2.387-14.815L137.239,401.992z"
        />
			<path
          style="fill:#0D1028;"
          d="M146.052,278.942c0,0-4.578,15.978-2.351,27.467l-8.5,41.622c0,0-11.723,23.742-11.196,52.057
				c0,0,7.087,5.461,14.203,1.416c0,0,13.993-41.162,16.103-46.789c2.11-5.628,19.521-55.222,19.521-55.222l-6.683-23.566
				L146.052,278.942z"
        />
			<path
          style="fill:#181E47;"
          d="M186.063,278.942c2.027,30.512,0.528,75.647-1.384,122.494c0,0-8.442,4.924-16.18,0
				c0,0-5.393-34.704-2.579-52.995l-4.221-39.394c0,0-6.8-19.41-3.986-30.105H186.063z"
        />
		</g>
		<g>
			<path
          style="fill:#FFA197;"
          d="M217.99,272.466c0,0,6.749,3.687,9.344,5.721c2.596,2.034,6.143,7.052,4.672,7.052
				s-5.71-4.92-5.71-4.92s-0.133,4.283-5.085,4.92c-4.952,0.638-7.374-0.574-7.894-1.353c-0.519-0.779,2.769-1.156,2.769-1.156
				s-2.534-0.6-2.824-3.789l-2.627-2.756L217.99,272.466z"
        />
			<path
          style="fill:#5A8BED;"
          d="M211.14,263.108c-4.951,3.885-9.643,6.911-12.105,6.755c-6.703-0.442-11.784-8.975-11.784-8.975
				l-0.017,0.243l-1.171,17.82c-18.383,6.261-40.009,0-40.009,0l-1.63-10.822l-0.026,0.009c-0.407,0.069-5.593,1.023-9.781-0.156
				c-2.281-0.642-4.258-1.908-5.003-4.292c-2.159-6.911-0.624-39.056,7.934-46.79c8.741-7.917,36.836-4.899,43.218-0.035
				c6.382,4.882,17.464,32.699,17.464,32.699L211.14,263.108z"
        />
			<path
          style="opacity:0.71;fill:#4A6BD3;"
          d="M187.252,260.883l-17.991-22.944c0,0,3.026,25.924,17.253,34.154L187.252,260.883z"
        />
			<path
          style="opacity:0.71;fill:#4A6BD3;"
          d="M144.426,268.131l-0.03,0.01c-0.405,0.069-5.595,1.017-9.779-0.158v-37.43
				L144.426,268.131z"
        />
			<path
          style="fill:#5A8BED;"
          d="M220.212,272.09c0,0-3.73,4.782-9.646,5.477c0,0-15.73-5.274-23.907-17.57
				c-0.304-0.451-0.59-0.91-0.867-1.379c-7.709-13.12,11.862-10.189,11.862-10.189l12.911,13.545L220.212,272.09z"
        />
		</g>
	</g>
	<g>
		<g>
			<path
          style="fill:#181E47;"
          d="M628.571,401.043c0,0,1.25,4.919-3.543,8.182c-5.521,3.759-6.108,6.695-6.108,6.695h20.439
				l-1.057-15.723L628.571,401.043z"
        />
			<path
          style="fill:#0D1028;"
          d="M592.862,401.043c0,0,1.25,4.919-3.543,8.182c-5.521,3.759-6.108,6.695-6.108,6.695h10.875
				c1.756,0,3.435-0.637,4.818-1.719c1.532-1.198,3.105-2.043,4.747-2.308l-1.057-11.697L592.862,401.043z"
        />
			<path
          style="fill:#4A6BD3;"
          d="M597.412,280.801c0,0-11.5,44.522-14.319,57.443c-2.819,12.921,8.223,63.196,8.223,63.196
				s6.049,2.03,12.569-1.351c0,0,2.995-22.729-0.705-41.759c-2.366-12.166,1.067-16.344,5.11-23.082
				c4.757-7.929,12.158-24.315,12.158-24.315s-3.348-32.42-4.405-32.244C614.985,278.865,597.412,280.801,597.412,280.801z"
        />
			<path
          style="fill:#5A8BED;"
          d="M609.699,281.038l17.796,121.517c0,0,5.873,2.056,11.747,0c0,0,4.699-27.193,1.644-46.223
				c-3.054-19.029-2.76-31.95-0.529-43.462c2.232-11.512,2.878-20.439-7.694-31.833H609.699z"
        />
		</g>
		<g>
			<path
          style="fill:#F4C737;"
          d="M642.681,244.507l-7.405,13.743c-0.277,0.583-0.524,1.196-0.751,1.819v0.01
				c-3.124,8.7-1.592,20.96-1.592,20.96c-5.724,1.562-11.449,3.015-17.213,3.401c-6.07,0.415-12.18-0.356-18.379-3.401
				c4.577-15.038-1.177-24.311-1.177-24.311s-1.77,2.007-4.409,4.479c-2.699,2.521-6.298,5.536-9.807,7.385
				c-6.93,3.638-11.627,0-16.916-5.527c-5.279-5.517-13.416-20.436-13.416-20.436c-6.743-1.414-9.56-6.416-9.165-11.577
				c0.396-5.151,2.748-4.993,4.637-1.681c1.898,3.302,6.476,6.555,6.476,6.555s-1.236-5.724-0.84-6.248
				c0.405-0.534,1.414,0.573,2.511,2.64c1.107,2.076,2.254,7.049,2.254,7.049s2.966,2.412,8.601,6.723
				c2.61,1.997,5.467,4.212,7.791,6.011c2.729,2.126,4.726,3.688,4.726,3.688s3.431-6.792,10.302-16.738
				c6.881-9.966,14.711-10.668,14.711-10.668l20.446-1.493c0,0,6.634,0.465,10.747,3.876
				C638.924,234.165,642.681,244.507,642.681,244.507z"
        />
			<path
          style="fill:#EDA532;"
          d="M634.524,260.078c-3.124,8.7-1.592,20.96-1.592,20.96c-5.724,1.562-11.449,3.015-17.213,3.401
				c0.455-5.882,0.959-17.351-1.671-20.198c-3.589-3.876-13.1-3.035-13.1-3.035c6.93-2.917,10.925-0.02,21.138-1.127
				c9.946-1.088,6.545-10.687,6.357-11.202l6.08,11.192V260.078z"
        />
			<path
          style="fill:#FFA197;"
          d="M573.613,252.1c0,0-6.99,2.215-8.849,10.964c-5.279-5.517-13.416-20.436-13.416-20.436
				c-6.743-1.414-9.56-6.416-9.165-11.577c0.396-5.151,2.749-4.993,4.637-1.681c1.898,3.302,6.476,6.555,6.476,6.555
				s-1.236-5.724-0.84-6.248c0.405-0.534,1.414,0.573,2.511,2.64c1.107,2.076,2.254,7.049,2.254,7.049s2.966,2.412,8.601,6.723
				C568.432,248.086,571.29,250.3,573.613,252.1z"
        />
			<path
          style="fill:#EDA532;"
          d="M596.164,256.727c0,0-1.77,2.007-4.409,4.479c-2.017-4.479-1.967-12.694,1.295-17.756
				c3.52-5.458,4.844-10.045,4.844-10.045s0.178,2.729-2.471,10.836C592.783,252.347,596.164,256.727,596.164,256.727z"
        />
			<g>
				<polygon
            style="fill:#F66A35;"
            points="630.856,288.487 604.437,294.192 596.801,258.828 620.897,253.625 623.759,255.621 				
					"
          />
				
					<rect
            x="603.784"
            y="257.753"
            transform="matrix(0.9775 -0.2111 0.2111 0.9775 -44.0811 136.1343)"
            style="fill:#D65129;"
            width="23.791"
            height="33.624"
          />
				<polygon
            style="fill:#F79057;"
            points="623.759,255.621 600.504,260.642 596.801,258.828 620.897,253.625 				"
          />
			</g>
			<g>
				<path
            style="fill:#FFA197;"
            d="M647.11,276.46c-1.75,1.176-5.408,2.037-9.659,2.669c-9.758,1.443-22.64,1.671-22.64,1.671
					l-0.73-6.86c0,0,3.913-1.01,12.781-3.946c3.312-1.107,5.715-1.859,7.425-2.363c2.857-0.86,3.777-1.038,3.777-1.038l-9.63-17.736
					c0,0,2.699-18.449,6.11-18.092c3.401,0.356,13.624,26.427,14.919,32.3C650.749,268.936,652.864,272.585,647.11,276.46z"
          />
				<path
            style="fill:#F4C737;"
            d="M647.11,276.46c-1.75,1.176-5.408,2.037-9.659,2.669c-3.964-5.25-3.164-11.498-3.164-11.498
					c2.857-0.86,3.777-1.038,3.777-1.038l-9.63-17.736c0,0,2.699-18.449,6.11-18.092c3.401,0.356,13.624,26.427,14.919,32.3
					C650.749,268.936,652.864,272.585,647.11,276.46z"
          />
				<path
            style="fill:#FFA197;"
            d="M614.081,273.94c0,0-4.269-3.117-5.645-3.617c-1.377-0.501,0.534,2.961,2.036,4.463
					c0,0-4.482,1.255-7.675,0.834c-3.193-0.42-4.672-2.044-5.13-1.251c-0.459,0.792,3.545,7.758,6.716,9.093
					c3.17,1.335,10.429-2.505,10.429-2.505L614.081,273.94z"
          />
			</g>
		</g>
		<g>
			<path
          style="fill:#181E47;"
          d="M625.616,222.541c0,0,2.349-15.036,0.587-22.377c-1.762-7.342-4.744-7.753-4.744-7.753
				s-2.597-5.169-9.352-5.286c-6.754-0.117-14.566,2.702-16.151,8.458c0,0-2.526,1.23-1.468,9.249
				c1.057,8.019,0.657,14.127-0.259,18.238c0,0,10.595,3.348,14.883-0.822c4.288-4.17-2.056-15.27-2.056-15.27l11.383,5.062
				L625.616,222.541z"
        />
			<path
          style="fill:#EF8981;"
          d="M618.509,211.262c0,0-1.41,12.365,0,13.775c1.41,1.41,5.286,1.85,5.286,1.85
				s-4.317,8.634-11.717,8.722c-7.4,0.088-8.722-7.224-8.722-7.224s3.612,0.176,4.317-1.762c0.705-1.938-0.264-6.343-0.264-6.343
				L618.509,211.262z"
        />
			<path
          style="fill:#FFA197;"
          d="M598.893,200.986c0,0-1.116,11.042,1.527,16.386c2.643,5.345,9.042,4.987,12.216,3.113
				c3.583-2.114,4.816-5.055,5.873-9.223c0,0,1.527,0.824,2.584-1.584c1.057-2.408-0.294-4.405-2.584-3.994
				c-1.996,0.358-1.762,3.054-1.762,3.054s-5.815-0.059-4.992-6.519C611.755,202.219,606.41,206.389,598.893,200.986z"
        />
			<path
          style="fill:#181E47;"
          d="M618.509,211.262c0,0-0.646,9.721-4.464,12.174c0,0,7.342,1.924,11.57-0.895L618.509,211.262z"
        />
		</g>
	</g>
</g>
</svg>
